HIERARCHY
ROOT Hips
{
	OFFSET 0.000000 0.000000 0.000000
	CHANNELS 6 Xposition Yposition Zposition Zrotation Yrotation Xrotation 
	JOINT LowerBack
	{
		OFFSET 0.000000 0.000000 0.000000
		CHANNELS 3 Zrotation Yrotation Xrotation
		JOINT Spine
		{
			OFFSET 0.028270 2.035590 -0.193380
			CHANNELS 3 Zrotation Yrotation Xrotation
			JOINT Spine1
			{
				OFFSET 0.056720 2.048850 -0.042750
				CHANNELS 3 Zrotation Yrotation Xrotation
				JOINT Neck
				{
					OFFSET 0.000000 0.000000 0.000000
					CHANNELS 3 Zrotation Yrotation Xrotation
					JOINT Neck1
					{
						OFFSET -0.054170 1.746240 0.172020
						CHANNELS 3 Zrotation Yrotation Xrotation
						JOINT Head
						{
							OFFSET 0.104070 1.761360 -0.123970
							CHANNELS 3 Zrotation Yrotation Xrotation
							End Site
							{
								OFFSET 0.000000 0.000000 0.000000
							}
						}
					}
				}
				JOINT LeftShoulder
				{
					OFFSET 0.000000 0.000000 0.000000
					CHANNELS 3 Zrotation Yrotation Xrotation
					JOINT LeftArm
					{
						OFFSET 3.362410 1.200890 -0.311210
						CHANNELS 3 Zrotation Yrotation Xrotation
						JOINT LeftForeArm
						{
							OFFSET 4.983000 -0.000000 -0.000000
							CHANNELS 3 Zrotation Yrotation Xrotation
							JOINT LeftHand
							{
								OFFSET 3.483560 -0.000000 -0.000000
								CHANNELS 3 Zrotation Yrotation Xrotation
								JOINT LeftFingerBase
								{
									OFFSET 0.000000 0.000000 0.000000
									CHANNELS 3 Zrotation Yrotation Xrotation
									JOINT LeftHandIndex1
									{
										OFFSET 0.715260 -0.000000 -0.000000
										CHANNELS 3 Zrotation Yrotation Xrotation
										End Site
										{
											OFFSET 0.000000 0.000000 0.000000
										}
									}
								}
								JOINT LThumb
								{
									OFFSET 0.000000 0.000000 0.000000
									CHANNELS 3 Zrotation Yrotation Xrotation
									End Site
									{
										OFFSET 0.000000 0.000000 0.000000
									}
								}
							}
						}
					}
				}
				JOINT RightShoulder
				{
					OFFSET 0.000000 0.000000 0.000000
					CHANNELS 3 Zrotation Yrotation Xrotation
					JOINT RightArm
					{
						OFFSET -3.136600 1.374050 -0.404650
						CHANNELS 3 Zrotation Yrotation Xrotation
						JOINT RightForeArm
						{
							OFFSET -5.241900 -0.000000 -0.000000
							CHANNELS 3 Zrotation Yrotation Xrotation
							JOINT RightHand
							{
								OFFSET -3.444170 -0.000000 -0.000000
								CHANNELS 3 Zrotation Yrotation Xrotation
								JOINT RightFingerBase
								{
									OFFSET 0.000000 0.000000 0.000000
									CHANNELS 3 Zrotation Yrotation Xrotation
									JOINT RightHandIndex1
									{
										OFFSET -0.622530 -0.000000 -0.000000
										CHANNELS 3 Zrotation Yrotation Xrotation
										End Site
										{
											OFFSET 0.000000 0.000000 0.000000
										}
									}
								}
								JOINT RThumb
								{
									OFFSET 0.000000 0.000000 0.000000
									CHANNELS 3 Zrotation Yrotation Xrotation
									End Site
									{
										OFFSET 0.000000 0.000000 0.000000
									}
								}
							}
						}
					}
				}
			}
		}
	}
}
MOTION
Frames: 18
Frame Time: 0.033333
-0.230791 9.896020 1.547927 177.399124 -25.524244 -162.312056 0.106392 -0.382241 6.815960 0.386690 -1.058859 -4.357860 -4.526612 -1.406665 -1.035608 9.760843 -9.218790 -3.339819 -2.873381 -2.184589 -0.863819 0.704286 -3.681589 0.760694 -1.831570 -1.491323 3.797931 -67.621805 -0.084144 14.226473 1.858350 -35.663297 -5.668155 2.930159 3.203190 0.312430 3.077585 -3.389034 -3.284771 -0.219164 -1.799424 -0.620898 -0.673136 -3.321594 -1.110270 9.425871 -4.431086 3.174815 59.397859 5.467078 0.529627 3.673850 37.411954 0.412122 -2.651004 5.889476 1.675542 1.500465 -0.674085 2.817983 0.443523 3.159860 3.596680 2.843487 2.536936 4.236374 
-0.207500 9.890102 1.483766 -179.614005 -31.914811 -161.720667 4.426365 0.028898 2.057676 2.032451 -4.108668 -5.932887 -5.770005 -2.938471 -2.076699 9.427228 -9.023237 -8.928069 -3.445444 -1.069949 1.100860 1.139869 -4.061133 -1.163963 -0.314397 4.729063 3.106769 -71.431383 -0.404888 17.719935 -0.748820 -42.419056 -0.065751 0.911231 -2.839041 -1.552210 1.802621 -0.499362 1.244610 1.353410 1.692701 -1.795756 -0.187584 0.171752 3.098323 11.345630 0.049447 2.550753 59.456113 1.315138 3.097757 4.632717 31.986159 0.742676 -0.340517 5.461045 -0.522088 1.822004 -2.464779 1.684368 -2.687859 0.208662 0.495226 -0.271208 1.243562 -2.939417 
-0.172486 9.907825 1.344847 -177.036678 -27.747484 -163.481256 4.863074 -2.379994 6.111868 -2.503792 -1.953883 -3.529217 -10.237845 -2.411250 -2.349482 10.227723 -3.825675 -7.397336 -0.818319 2.087988 0.044270 2.940006 -0.107659 0.357731 -6.418643 5.058215 2.089429 -59.207940 2.517794 17.386157 -1.459060 -48.374852 0.759543 0.748841 2.516141 -2.726123 -1.024027 0.332716 -0.402756 -3.422702 0.061114 0.151363 -0.715264 -2.116847 -0.594948 14.369381 -2.255276 2.204171 61.070831 1.728157 0.818514 3.873539 31.679218 5.067524 1.799568 6.626997 2.729144 -0.208776 -2.331109 2.173110 -2.123946 1.427266 -2.947365 1.411586 -0.143901 2.775436 
-0.155444 9.916852 1.218817 176.223892 -28.860568 -165.700890 9.431247 -2.616619 1.311301 1.712935 2.401353 -6.955060 -8.401462 -2.841161 2.445740 9.080496 -3.000193 -7.329605 -4.319987 -3.574906 1.164673 -1.464037 -3.063015 3.591602 7.190316 3.690535 3.181743 -63.284710 4.814218 15.304085 -4.695930 -36.944563 1.928911 0.584459 4.844984 -1.505955 -1.636970 0.871895 -0.010335 -0.802252 -4.281206 -0.796337 -3.817933 -2.883140 2.122444 12.840082 -5.136753 2.935871 58.990133 5.078054 3.744172 -0.060372 34.145224 -2.514720 0.511656 8.087443 1.670410 2.967910 -1.491112 2.830930 2.794879 -1.405126 -2.050458 2.189628 -0.358545 -2.577304 
-0.185778 9.918144 1.077032 178.585463 -33.493607 -165.579213 1.430980 -3.911222 5.423389 -2.010406 -7.095359 -0.717816 -8.164166 -3.902798 0.418504 10.803269 -7.383862 -5.904164 -5.038950 -0.548947 0.315585 2.130916 -2.552185 0.505970 -3.938853 2.135196 4.951319 -61.402428 11.236897 15.689175 -5.381368 -34.066385 2.159315 0.495605 -0.315372 -1.026496 1.850733 -0.420280 -0.123771 -0.207890 1.084835 0.170327 0.327222 -1.966638 -1.511782 10.524293 -2.638476 2.491686 67.056885 9.988282 6.987573 4.962591 44.975087 3.832108 -1.518763 10.125698 1.801281 -0.192861 2.142074 -2.269004 2.413897 -4.194305 -1.167748 -3.810877 -1.020457 1.274834 
-0.142435 9.868464 0.936720 -175.898718 -25.312940 -168.714866 7.158504 -1.802603 1.472714 1.578451 -2.035783 -1.975142 -6.574872 -2.483001 -1.693023 9.840121 -4.958053 -6.641671 -4.409587 -2.733630 -2.609856 1.376734 -1.360391 1.435601 5.569781 0.988017 0.887589 -64.535968 2.079307 14.026576 -8.092995 -46.455515 5.983565 -2.418883 3.667381 0.071790 -2.313315 0.834918 0.865327 0.263861 5.395835 -0.099572 0.114435 -0.020164 -0.356438 16.237742 -2.400801 1.077197 60.436217 8.360159 9.210089 0.280374 34.206803 -2.711423 -2.346157 9.887220 0.803359 -0.507910 -1.860752 -0.749074 -3.640449 -1.714163 -1.871978 -1.606113 2.374698 -1.763278 
-0.152647 9.929310 0.819592 176.327395 -39.782491 -164.521092 7.930696 -2.060181 -1.375849 1.438205 -1.219166 -1.850457 -5.688420 1.315435 -1.559189 12.057309 -4.618993 -3.288982 -7.141326 0.591278 0.122094 0.205727 -0.131430 -0.078473 -2.645339 8.138602 6.339719 -65.990147 1.728901 18.131419 -3.643331 -33.218646 4.139353 -1.790812 -1.157443 -0.411069 -2.232831 0.033708 -1.974993 -3.049746 -2.085879 -0.256226 3.015624 -1.224067 -3.404539 21.247278 -3.138404 3.342700 57.349145 6.202252 3.456834 2.923007 45.565610 0.438899 6.157111 4.437515 -0.766042 -0.016628 2.222241 -0.340533 -1.548136 -0.042304 -2.433078 -0.783335 2.284886 -2.062715 
-0.116197 9.977578 0.802440 177.958908 -39.538646 -167.364186 1.027301 -1.996593 1.715811 0.760380 -5.417929 -6.314345 -6.012871 -3.958885 0.951900 13.273208 -4.735763 -6.855700 -4.926836 -1.506857 -2.705643 0.441764 -1.279428 0.873526 -5.840950 6.560578 1.539809 -64.869309 6.830654 10.574153 -1.648153 -23.237715 -0.549116 0.730753 2.646583 -0.259389 4.056540 -0.863188 -0.794210 -1.934491 2.297856 -3.363282 2.049536 3.647143 0.981137 17.037831 -5.805918 -0.380369 63.092330 3.388606 8.688130 0.039901 38.951314 0.350577 0.105641 5.817981 -3.343325 -0.872414 -1.509529 -0.451012 -0.923610 -0.352557 -4.077542 2.530023 -0.433823 -0.011017 
-0.144940 9.953925 0.571168 177.598527 -28.763544 -165.007840 5.084798 0.455781 5.864156 2.810961 -3.453344 -4.254656 -8.665859 -3.992773 -2.082295 11.214701 -5.665611 -2.829485 -2.144707 3.539076 3.315803 1.964507 -1.349312 1.008092 0.835825 6.329146 3.216968 -60.962041 1.934145 14.971897 -1.241494 -37.669598 -0.991742 -0.437319 0.606773 -0.605647 3.572448 -0.239087 -0.425414 -0.595755 2.832263 0.431141 -0.741819 -1.472180 -0.757463 13.462895 -8.130869 1.077087 58.136752 18.023269 5.350148 0.882983 45.340112 -2.495902 -1.688414 6.890839 -4.098674 3.767925 -0.461791 0.505209 1.117693 0.524471 2.171767 1.602332 -0.298663 3.446710 
-0.050269 10.013628 0.505670 -178.577365 -31.257163 -171.003626 4.065817 -0.119043 8.229600 -0.060041 -0.963819 -4.371154 -10.246164 -2.834496 0.487041 13.212727 -1.476398 -1.843765 -4.348837 0.592783 1.668152 -3.685058 3.324934 1.136251 -7.296453 5.226143 1.271349 -59.186875 0.614119 14.250586 -5.597046 -28.597249 6.380587 -0.372796 1.581912 3.874754 2.777660 0.024610 1.260919 -3.931457 -0.028076 -2.619600 -0.180660 -0.493157 3.940917 8.409381 -1.233392 1.636795 62.129558 10.113785 1.885075 3.089179 38.071753 3.238885 -1.049949 7.956616 -4.957347 -3.472315 1.783477 0.027669 -4.732554 -3.114904 0.786532 -1.866536 2.509720 2.448240 
-0.054779 9.933320 0.358035 175.750639 -33.308405 -171.403073 5.711583 -3.153821 7.467431 -1.437542 -4.936758 -5.334656 -7.744555 -2.278037 -0.894119 10.948059 -3.706502 -7.605136 -3.771413 -0.800769 0.052118 1.527120 -1.300637 -0.915263 -5.498561 2.475767 0.873413 -59.370133 9.407403 16.516798 1.404798 -27.846081 -2.260854 -0.859284 -0.435301 1.178724 -0.523623 2.160162 -1.926451 -0.386196 -3.012813 1.371048 -0.222260 2.810843 0.518296 11.354324 -2.230883 1.730757 62.135091 6.651703 1.355717 6.461101 38.253023 1.617491 -0.536085 7.479178 1.423199 2.008542 2.083652 1.657896 -0.055926 1.484691 1.149230 6.409992 1.403194 -1.501726 
-0.032356 10.013775 0.229568 -179.802385 -30.864936 -167.186016 6.034338 0.079019 0.894002 -0.432219 -0.288423 -2.499507 -4.744862 -5.133512 -2.669727 9.584776 -0.338044 -10.460073 -1.729719 4.198408 4.332430 0.738020 -1.417238 -2.297364 -3.614101 2.248720 2.182432 -60.891462 6.135483 16.690639 -7.739304 -32.911531 4.171126 -3.729211 -0.320192 1.339949 -0.488443 1.702878 -0.404046 -2.094332 -0.277908 0.936141 2.699594 -1.210814 4.122046 12.451052 -2.332551 0.834894 59.942949 5.741226 5.104036 4.933959 44.629063 0.166299 -0.726478 12.704355 -0.897098 -1.514877 -1.513583 0.707688 -1.169254 0.809550 -3.140999 -3.117575 1.266668 1.250904 
-0.016546 10.030478 0.136683 -176.213792 -31.844478 -169.165040 0.125608 -3.884565 4.643878 0.596932 2.823106 -6.596178 -6.355907 -2.552145 1.857158 11.963995 -6.922194 -5.883480 -4.623097 -0.703440 1.064267 0.459196 1.474346 -0.605699 -2.588565 7.245878 0.459582 -59.988364 10.464438 19.539541 -1.339753 -25.731196 2.295296 -4.083598 5.210545 -0.161741 -0.030435 4.427195 2.964339 -0.418712 1.249076 -0.671452 -0.617455 2.280545 -2.072812 14.810574 -1.567672 -0.551987 59.872664 -0.298368 7.138248 -1.171000 39.324603 -0.463371 1.700297 5.981875 2.811168 -1.333584 1.653835 -0.805595 -0.928387 0.150467 1.039952 0.973064 -1.011182 -3.619941 
-0.037642 10.045673 -0.028639 175.938703 -31.006012 -161.660976 2.508878 0.019870 8.951972 2.241563 -1.593217 -0.237666 -8.437121 -4.862344 1.427418 9.885861 -5.947140 -5.568299 -6.098513 1.736695 -0.393187 -2.570628 -1.938659 0.031605 -4.688133 8.767641 0.815189 -64.420411 3.050367 15.873072 3.217430 -26.399604 -2.549445 -0.506281 0.363071 1.476436 -1.244799 -0.376005 -1.041653 1.356669 1.515142 -1.133689 0.919937 0.606691 1.119641 6.880876 -0.272636 3.305180 65.858174 5.401230 8.302584 6.496255 37.788507 4.760782 1.122605 7.224053 -3.387261 -0.792571 -1.274565 4.031863 -3.092654 4.804314 -1.764794 0.442568 0.286882 -0.509847 
-0.019472 9.939227 -0.133949 -179.325512 -24.102383 -166.966552 -0.357486 -3.988876 6.583330 -2.817882 -2.025481 -0.959498 -9.952228 -2.715690 1.825569 12.312798 -3.777291 -2.152186 -5.054111 0.873696 2.229898 -1.204332 2.171085 -3.178492 -0.184434 6.041894 2.427351 -61.770610 13.438984 19.378703 -1.646627 -23.752516 0.279855 -0.095842 4.200147 0.458804 2.647325 -0.754785 1.422492 -2.088219 0.991692 -0.342713 0.238443 1.533224 -0.565253 11.366895 -4.589334 4.199142 68.845280 -0.997940 11.129012 1.007739 43.407806 -1.764543 -0.975030 7.834855 1.372729 3.206312 -0.745923 -0.352401 0.364056 0.108473 -1.742092 0.778941 0.664063 -1.470670 
0.006527 10.036683 -0.288896 178.513548 -26.573989 178.619375 3.264542 -1.713546 -0.520716 -0.611290 -1.126397 -2.358826 -9.662262 -5.235050 2.987135 9.291960 -2.544721 -3.360671 -7.015995 2.247468 -1.856606 0.048608 -0.037216 -0.384691 -1.386343 0.281658 0.631321 -63.130164 14.715735 20.261225 0.972625 -30.199618 -1.491695 4.403080 1.360226 2.374978 3.621950 -0.457112 -0.315614 -2.473044 4.642991 -3.682809 -0.671482 -1.039525 -1.028127 10.505285 -1.294763 1.647106 62.740922 5.254003 5.803011 2.548623 44.795463 0.390022 2.410902 7.380019 0.852933 -0.382835 0.040668 -2.930474 -2.518842 -2.749700 -0.891524 -2.528923 -1.470163 2.289269 
-0.047409 9.960889 -0.445829 -178.713743 -17.695811 -168.411259 0.045570 -2.127345 2.957403 0.834848 -4.837287 -0.067755 -10.234310 -4.052411 1.215610 5.593312 -2.450942 -2.702922 -3.062732 -0.916838 -1.393728 -1.904221 1.850304 -2.726076 -2.708101 11.413766 -0.025859 -64.250018 10.963480 12.669940 -6.441729 -33.172908 5.528503 4.210263 -0.824117 0.421514 -3.266328 -0.368785 1.545942 2.834669 0.766105 -2.635057 0.975248 -1.591962 1.688387 10.535810 -5.148853 0.522600 63.998958 1.546186 3.719452 5.753905 46.513375 -0.145051 0.936867 7.985433 2.256297 -0.757327 0.283883 1.798570 -1.446857 -3.865019 -2.899783 0.741989 1.750035 -0.388787 
0.004441 9.995483 -0.608598 176.794745 -30.610256 -166.154281 2.412361 -1.728413 6.568751 -2.305696 -3.334041 -3.337817 -5.104243 -4.473537 -0.653419 8.962139 -6.252758 -6.030965 -4.463859 -3.272508 1.346989 3.085768 1.411192 -4.532616 -4.358817 6.963339 3.580334 -68.513352 6.239586 15.004188 -5.346910 -29.742405 5.221785 2.532037 4.121696 3.964955 0.699178 0.149955 0.427847 1.254802 2.527797 1.035383 1.841453 2.014942 -5.379750 8.820140 -4.961612 3.599609 63.861096 4.867976 4.011949 2.940405 47.097216 2.962022 3.486818 4.794018 4.326318 3.193819 -2.342757 1.327291 -3.004818 -0.032465 -1.118532 0.857515 1.005854 -3.949792 
